<svg xmlns="http://www.w3.org/2000/svg" width="256" height="256"><path fill-opacity=".016" d="M0 128.004v128.004l128.25-.254 128.25-.254.254-127.75L257.008 0H0v128.004m.485.496c0 70.4.119 99.053.265 63.672.146-35.38.146-92.98 0-128C.604 29.153.485 58.1.485 128.5" fill="#1976D2" fill-rule="evenodd"/><path fill-opacity=".267" d="M0 128.004v128.004l128.25-.254 128.25-.254.254-127.75L257.008 0H0v128.004m.485.496c0 70.4.119 99.053.265 63.672.146-35.38.146-92.98 0-128C.604 29.153.485 58.1.485 128.5m21.251-91.808C19.835 37.188 17 41.878 17 44.527c0 .895 1.315 2.942 2.923 4.55L22.846 52h30.988l1.145 5.25C59.395 77.495 72 139.504 72 140.981c0 1-4.05 8.384-9 16.41-4.95 8.025-9 15.66-9 16.966 0 1.305.933 3.559 2.073 5.008 1.962 2.495 2.546 2.635 11 2.635 4.91 0 8.927.13 8.927.289 0 .158-.9 2.053-2 4.211-3.909 7.668-2.159 19.56 3.803 25.842 11.355 11.964 29.888 8.855 37.798-6.342 2.588-4.971 2.374-14.251-.455-19.75l-2.187-4.25h18.521c10.186 0 18.52.13 18.52.289 0 .158-.9 2.053-2 4.211-3.909 7.668-2.159 19.56 3.803 25.842 11.355 11.964 29.888 8.855 37.798-6.342 2.588-4.971 2.374-14.251-.455-19.75l-2.187-4.25h14.566c14.132 0 14.639-.073 17.02-2.455 3.129-3.128 3.129-6.962 0-10.09L216.091 167h-69.046C102.57 167 78 166.651 78 166.019c0-.54 1.447-3.915 3.215-7.5L84.429 152h115.662l2.454-2.455c1.35-1.35 2.455-2.887 2.455-3.416 0-.529 3.582-21.043 7.959-45.587 8.304-46.558 8.438-48.189 4.155-50.481-1.305-.698-15.944-1.062-42.798-1.063-22.449-.001-55.323-.298-73.053-.661l-32.238-.66-1.292-4.573c-1.913-6.773-3.065-7.091-25.233-6.973-10.45.055-19.794.308-20.764.561M75.682 80.25c1.886 8.938 5.317 25.25 7.624 36.25l4.196 20 51.676.259 51.676.259 1.049-5.259c.577-2.892 3.307-18.084 6.068-33.759 2.76-15.675 5.282-29.737 5.604-31.25l.584-2.75H72.253l3.429 16.25m34.282 4.817c-.86 1.608-.752 2.608.488 4.5 1.762 2.689 2.745 2.933 5.614 1.398 2.162-1.157 2.571-4.928.734-6.765-1.886-1.886-5.615-1.413-6.836.867m13.216 2.183c.316 2.222.537 2.253 17.57 2.524l17.25.273V85H122.861l.319 2.25m-13.141 12.678c-2.069 3.866 2.116 8.13 5.961 6.072 2.218-1.187 2.659-4.941.8-6.8-1.835-1.835-5.607-1.429-6.761.728m13.141 2.322c.316 2.222.537 2.253 17.57 2.524l17.25.273V100H122.861l.319 2.25m-13.141 12.678c-2.069 3.866 2.116 8.13 5.961 6.072 2.218-1.187 2.659-4.941.8-6.8-1.835-1.835-5.607-1.429-6.761.728m13.141 2.322c.316 2.222.537 2.253 17.57 2.524l17.25.273V115H122.861l.319 2.25M91.5 190.155c-5.048 2.761-5.905 7.531-2.045 11.39 3.149 3.15 7.488 3.209 10.371.141 2.884-3.071 2.771-7.179-.281-10.231-2.653-2.654-4.905-3.018-8.045-1.3m73.864.015c-2.191 1.06-4.364 4.757-4.364 7.423 0 2.547 4.687 6.407 7.78 6.407 3.602 0 7.22-3.688 7.22-7.36 0-3.141-4.013-7.674-6.705-7.572-.987.037-2.756.533-3.931 1.102" fill="#1976D2" fill-rule="evenodd"/><path fill-opacity=".358" d="M0 128.004v128.004l128.25-.254 128.25-.254.254-127.75L257.008 0H0v128.004m.485.496c0 70.4.119 99.053.265 63.672.146-35.38.146-92.98 0-128C.604 29.153.485 58.1.485 128.5m18.689-90.186c-2.981 3.174-2.858 8.093.281 11.231C21.853 51.944 22.267 52 37.706 52h15.797l9.279 44.855 9.279 44.855-8.918 14.503c-4.905 7.976-9.207 15.414-9.561 16.53-.907 2.857 1.311 7.15 4.563 8.832 1.621.838 5.66 1.425 9.805 1.425 3.878 0 7.05.156 7.05.346 0 .191-.788 1.878-1.75 3.75-1.146 2.229-1.749 5.676-1.747 9.987.002 5.578.464 7.329 3.026 11.473 9.894 16.003 33.247 14.858 41.104-2.015 2.901-6.229 3.048-13.444.394-19.291l-1.929-4.25h17.451c9.598 0 17.451.156 17.451.346 0 .191-.787 1.878-1.75 3.75-1.146 2.229-1.749 5.676-1.747 9.987.002 5.578.464 7.329 3.026 11.473 9.894 16.003 33.247 14.858 41.104-2.015 2.901-6.229 3.048-13.444.394-19.291l-1.929-4.25h13.001c16.542 0 19.901-1.435 19.901-8.5 0-3.687-1.027-5.463-4.072-7.037-2.401-1.242-13.105-1.463-70.836-1.463H78.085l2.955-6.25 2.955-6.25 57.752-.501c43.374-.376 58.293-.81 59.923-1.742 1.193-.683 2.627-2.708 3.185-4.499 2.357-7.56 16.43-90.485 15.79-93.036-1.467-5.846.243-5.722-78.984-5.722H69.223l-.693-3.75c-.38-2.062-1.634-4.763-2.785-6C63.701 36.054 63.148 36 42.5 36c-20.816 0-21.186.037-23.326 2.314M73 64.582c0 .633 13.314 64.111 14.507 69.168l.531 2.25h51.481c35.701 0 51.481-.326 51.481-1.063 0-.585 2.7-16.119 6-34.519 3.3-18.401 6-34.073 6-34.828 0-1.148-10.647-1.399-65-1.532-35.75-.088-65 .148-65 .524m38.223 18.975c-2.418 1.693-2.932 5.334-1.023 7.243 2.654 2.654 8.8.3 8.8-3.371 0-1.506-3.452-5.429-4.777-5.429-.428 0-1.778.701-3 1.557m12.466 1.087c-.379.379-.689 1.739-.689 3.023V90H159.133l-.317-2.75-.316-2.75-17.061-.273c-9.383-.15-17.37.038-17.75.417m-13.034 14.185c-3.146 3.476-1.486 8.171 2.89 8.171 2.254 0 5.455-2.834 5.455-4.829 0-1.6-3.69-5.171-5.345-5.171-.74 0-2.09.823-3 1.829M123 101.977V105H159.133l-.317-2.75-.316-2.75-17.75-.273-17.75-.273v3.023m-12.425 11.941c-4.106 4.536 1.865 10.708 6.395 6.609 2.649-2.397 2.576-5.031-.193-6.97-2.902-2.033-4.099-1.964-6.202.361M123 116.977V120H159.133l-.317-2.75-.316-2.75-17.75-.273-17.75-.273v3.023m-33.371 74.881c-2.561 2.83-1.798 7.947 1.557 10.441 2.339 1.738 3.072 1.837 5.665.763 1.694-.702 3.509-2.517 4.211-4.211 1.074-2.593.975-3.326-.764-5.665-2.59-3.484-8.098-4.169-10.669-1.328m74 0c-2.582 2.852-1.798 7.947 1.613 10.482 2.597 1.931 2.92 1.953 6.122.426 4.376-2.087 5.546-6.065 2.85-9.693-2.507-3.372-8.057-4.009-10.585-1.215" fill="#1976D2" fill-rule="evenodd"/><path fill-opacity=".289" d="M16.636 49.188c.335 1.822 1.688 4.437 3.007 5.812 2.315 2.414 2.907 2.511 17.313 2.821 9.897.213 15.236.718 15.865 1.5.725.902 15.786 72.001 17.407 82.179.176 1.1.584 1.55.908 1 .452-.767-15.923-83.346-17.698-89.25-.28-.932-4.431-1.25-16.318-1.25H21.178l-2.576-3.062-2.577-3.061.611 3.311M221.067 59.5c-.049.55-3.623 20.77-7.941 44.934-7.5 41.964-7.972 44.037-10.544 46.25L199.888 153H84.429l-3.205 6.5-3.205 6.5 2.74-.015c1.644-.009 2.261-.321 1.542-.778-.866-.55-.499-1.658 1.322-3.985L86.145 158h56.793c55.522 0 56.85-.045 59.368-2.026 1.417-1.114 2.817-2.802 3.111-3.75 1.311-4.221 16.595-91.661 16.192-92.635-.257-.619-.49-.657-.542-.089M73.441 65.707c.307.801.559 2.095.559 2.875C74 69.791 83.35 70 137.5 70c50.085 0 63.519.264 63.59 1.25.05.688.525-.262 1.057-2.11.532-1.847.829-3.478.66-3.622-.169-.145-29.471-.489-65.116-.765-56.482-.438-64.737-.316-64.25.954M110.032 92.5c.052 1.626 2.586 4.5 3.968 4.5 1.382 0 3.916-2.874 3.968-4.5.018-.55-1.768-1-3.968-1s-3.986.45-3.968 1M125 93c.997 1.863 2.094 2 16 2s15.003-.137 16-2c1.051-1.964.76-2-16-2s-17.051.036-16 2m-14.968 14.5c.052 1.626 2.586 4.5 3.968 4.5 1.382 0 3.916-2.874 3.968-4.5.018-.55-1.768-1-3.968-1s-3.986.45-3.968 1m13.968-.535c0 2.225 4.632 3.035 17.363 3.035 10.934 0 13.792-.298 15.066-1.571.864-.865 1.571-1.765 1.571-2 0-.236-7.65-.429-17-.429-10.253 0-17 .383-17 .965m-13.775 15.928c.468 2.367 3.531 3.751 5.525 2.495 3.379-2.128 2.586-3.888-1.75-3.888-2.927 0-3.974.386-3.775 1.393M124 121.8c0 2.62 3.012 3.2 16.629 3.2 11.601 0 14.518-.29 15.8-1.571.864-.865 1.571-1.765 1.571-2 0-.236-7.65-.429-17-.429s-17 .36-17 .8m-71 57.854c0 1.43 1.251 3.751 2.923 5.423 2.581 2.58 3.626 2.923 8.917 2.923 3.402 0 6.149.467 6.353 1.08.198.594 1.129-.531 2.067-2.5l1.708-3.58h-8.061c-7.576 0-8.237-.176-10.984-2.923L53 177.154v2.5m165.814.465L216.128 183h-28.035l1.575 2.75 1.576 2.75 12.854-.5c14.305-.556 16.072-1.35 17.252-7.75.33-1.787.499-3.197.375-3.131-.124.065-1.434 1.415-2.911 3m-103.145 5.631l1.576 2.75 13.534-.306c8.787-.199 13.764.066 14.19.755.362.587 1.404-.507 2.327-2.444l1.672-3.505h-34.875l1.576 2.75M90 192c-1.1 1.1-2 3.195-2 4.655 0 2.434.145 2.53 1.75 1.152 2.767-2.376 5.074-2.845 7.829-1.589 1.743.794 2.404 1.739 2.081 2.974-.26.996-.065 1.559.433 1.25.499-.308.907-2.083.907-3.944 0-5.84-6.855-8.643-11-4.498m74 0c-1.1 1.1-2 3.195-2 4.655 0 2.434.145 2.53 1.75 1.152 2.767-2.376 5.074-2.845 7.829-1.589 1.743.794 2.404 1.739 2.081 2.974-.26.996-.065 1.559.433 1.25.499-.308.907-2.083.907-3.944 0-5.84-6.855-8.643-11-4.498m-93.526 9.5c.938 7.384 2.636 11.616 6.274 15.643 6.339 7.016 14.229 9.699 22.994 7.819 9.637-2.067 17.298-10.686 18.632-20.962.394-3.03.314-3.681-.243-1.994-3.69 11.176-12.718 18.137-23.52 18.136-11.045-.001-20.158-7.026-23.301-17.963-1.339-4.663-1.342-4.665-.836-.679m74 0c.938 7.384 2.636 11.616 6.274 15.643 6.339 7.016 14.229 9.699 22.994 7.819 9.637-2.067 17.298-10.686 18.632-20.962.394-3.03.314-3.681-.243-1.994-3.705 11.222-12.715 18.137-23.631 18.137-11.091 0-20.01-6.946-23.22-18.082l-1.314-4.561.508 4" fill="#1976D2" fill-rule="evenodd"/></svg>